name C:\Users\u0101727\Documents\MyRepositories\paper-ad\predictivesimulations_2d/Results/PredSim_2D/IK_c5.mot
datacolumns 11
datarows 30
range 1.27596949 1.55418841
endheader
time	pelvis_tilt	pelvis_tx	pelvis_ty	hip_flexion_l	hip_flexion_r	knee_angle_l	knee_angle_r	ankle_angle_l	ankle_angle_r	lumbar_extension	
          1.27596949	        -15.14011870	          1.69371857	          0.90059574	         33.22812298	         10.40886516	        -37.56319451	         -7.29573021	         15.70431176	         11.30270229	          9.46824017	
          1.28556325	        -15.13943500	          1.70570624	          0.89973752	         34.19663335	          9.63305940	        -36.09038611	         -7.34328546	         15.98993357	         11.31311116	          9.42836067	
          1.29515701	        -15.13983116	          1.71774939	          0.89882124	         35.10401377	          8.87488326	        -34.50091859	         -7.42652847	         16.19466126	         11.31130635	          9.39173129	
          1.30475076	        -15.14169866	          1.72985451	          0.89784577	         35.94678429	          8.13329088	        -32.80250758	         -7.54440438	         16.32761535	         11.30088123	          9.35866195	
          1.31434452	        -15.14535818	          1.74202974	          0.89680994	         36.72036880	          7.40793925	        -31.00664544	         -7.69721838	         16.39758007	         11.28265225	          9.32953829	
          1.32393827	        -15.15087734	          1.75428707	          0.89571643	         37.41807387	          6.69972393	        -29.13954347	         -7.88864317	         16.41269862	         11.25500750	          9.30495030	
          1.33353203	        -15.15828288	          1.76664477	          0.89457765	         38.02695424	          6.01067685	        -27.23540071	         -8.12492232	         16.38025952	         11.21190142	          9.28620268	
          1.34312578	        -15.16759500	          1.77912436	          0.89341532	         38.53122350	          5.34395860	        -25.32641453	         -8.41318528	         16.30665650	         11.14091258	          9.27501787	
          1.35271954	        -15.17849387	          1.79174465	          0.89225198	         38.92144430	          4.70398772	        -23.44044354	         -8.76192423	         16.19727808	         11.02575526	          9.27258364	
          1.36231330	        -15.19018370	          1.80452021	          0.89110559	         39.19747971	          4.09602375	        -21.59936027	         -9.18098831	         16.05624882	         10.84990130	          9.27930667	
          1.37190705	        -15.20145259	          1.81746391	          0.88999044	         39.36622539	          3.52534668	        -19.82478814	         -9.68068221	         15.88616794	         10.59907732	          9.29511443	
          1.38150081	        -15.21108041	          1.83058960	          0.88891869	         39.43489905	          2.99684563	        -18.13154127	        -10.27069446	         15.68823017	         10.26043881	          9.32009771	
          1.39109456	        -15.21792435	          1.84391175	          0.88789953	         39.41031736	          2.51495622	        -16.53139511	        -10.95959724	         15.46232943	          9.82183914	          9.35449616	
          1.40068832	        -15.22073022	          1.85744455	          0.88693823	         39.30007327	          2.08429527	        -15.04139464	        -11.75639058	         15.20718377	          9.27243013	          9.39844944	
          1.41028207	        -15.21823517	          1.87120241	          0.88603587	         39.10920690	          1.71038287	        -13.67609268	        -12.67136536	         14.92077623	          8.60123753	          9.45225051	
          1.41987583	        -15.20903493	          1.88519892	          0.88518815	         38.84249879	          1.39912881	        -12.45538469	        -13.71545110	         14.60022151	          7.79782431	          9.51615144	
          1.42946958	        -15.19157320	          1.89944583	          0.88438396	         38.50530605	          1.15618884	        -11.40806176	        -14.89884930	         14.24171749	          6.85468432	          9.59030299	
          1.43906334	        -15.16441016	          1.91395424	          0.88360418	         38.09795574	          0.98635178	        -10.56498859	        -16.23085110	         13.84090119	          5.77183904	          9.67529592	
          1.44865710	        -15.12635556	          1.92873240	          0.88281730	         37.61341080	          0.89253975	         -9.95982218	        -17.72442949	         13.39278224	          4.57164267	          9.77219038	
          1.45825085	        -15.07725615	          1.94377403	          0.88197946	         37.03369672	          0.87747899	         -9.64070709	        -19.38552638	         12.89255619	          3.26764137	          9.88213025	
          1.46784461	        -15.01966825	          1.95906209	          0.88111407	         36.29073499	          0.94840711	         -9.72821241	        -21.21102633	         12.33814939	          1.83984137	         10.00908814	
          1.47743836	        -14.96180392	          1.97441068	          0.88034808	         35.42768404	          1.10995301	        -10.04266018	        -23.18234559	         11.76889718	          0.37357880	         10.14363599	
          1.48703212	        -14.91463929	          1.98947906	          0.87991110	         34.56974601	          1.38897096	        -10.32309180	        -25.20702801	         11.21874443	         -0.90963092	         10.26253018	
          1.49662587	        -14.88673572	          2.00402012	          0.88006492	         33.75416019	          1.81372502	        -10.58163266	        -27.14484978	         10.68757097	         -1.91176699	         10.35185559	
          1.50621963	        -14.88043309	          2.01797089	          0.88096534	         32.98337457	          2.38011291	        -10.81314787	        -28.93318687	         10.19003525	         -2.66220071	         10.41047218	
          1.51581338	        -14.89103950	          2.03141467	          0.88257146	         32.23885472	          3.07135216	        -11.00564136	        -30.59276473	          9.74243101	         -3.17037631	         10.44452155	
          1.52540714	        -14.91196270	          2.04447569	          0.88467342	         31.49947777	          3.86690110	        -11.15018134	        -32.15269384	          9.35624460	         -3.44904042	         10.46102804	
          1.53500090	        -14.93783943	          2.05726144	          0.88703859	         30.74843400	          4.75120463	        -11.23994119	        -33.63054856	          9.03774709	         -3.51375518	         10.46530441	
          1.54459465	        -14.96523168	          2.06984614	          0.88948423	         29.97627834	          5.71223730	        -11.27300362	        -35.03479018	          8.78855464	         -3.37955338	         10.46054419	
          1.55418841	        -14.99224568	          2.08227678	          0.89188672	         29.17848628	          6.74099275	        -11.24980720	        -36.36673722	          8.60762815	         -3.06273560	         10.44850381	
